<svg width="32" height="32" viewBox="0 0 32 32" xmlns="http://www.w3.org/2000/svg">
  <!-- Círculo central rosa claro -->
  <circle cx="16" cy="16" r="4" fill="#FFB6C1"/>
  
  <!-- Anillo negro grueso -->
  <circle cx="16" cy="16" r="8" fill="none" stroke="black" stroke-width="2"/>
  
  <!-- Borde exterior negro -->
  <circle cx="16" cy="16" r="15" fill="none" stroke="black" stroke-width="1"/>
  
  <!-- Segmentos de vidrieras - 16 segmentos radiales -->
  <!-- Segmento 1 (rosa claro) -->
  <path d="M16 16 L20 8 A8 8 0 0 1 22.6 10.6 L16 16 Z" fill="#FFB6C1"/>
  
  <!-- Segmento 2 (amarillo claro) -->
  <path d="M16 16 L22.6 10.6 A8 8 0 0 1 24 16 L16 16 Z" fill="#FFFACD"/>
  
  <!-- Segmento 3 (naranja claro) -->
  <path d="M16 16 L24 16 A8 8 0 0 1 22.6 21.4 L16 16 Z" fill="#FFE4B5"/>
  
  <!-- Segmento 4 (verde claro) -->
  <path d="M16 16 L22.6 21.4 A8 8 0 0 1 20 24 L16 16 Z" fill="#E6F3FF"/>
  
  <!-- Segmento 5 (azul claro) -->
  <path d="M16 16 L20 24 A8 8 0 0 1 16 26 L16 16 Z" fill="#E0F6FF"/>
  
  <!-- Segmento 6 (púrpura claro) -->
  <path d="M16 16 L16 26 A8 8 0 0 1 12 24 L16 16 Z" fill="#F0E6FF"/>
  
  <!-- Segmento 7 (rosa más claro) -->
  <path d="M16 16 L12 24 A8 8 0 0 1 9.4 21.4 L16 16 Z" fill="#FFE6F0"/>
  
  <!-- Segmento 8 (amarillo más claro) -->
  <path d="M16 16 L9.4 21.4 A8 8 0 0 1 8 16 L16 16 Z" fill="#FFFFF0"/>
  
  <!-- Segmento 9 (naranja más claro) -->
  <path d="M16 16 L8 16 A8 8 0 0 1 9.4 10.6 L16 16 Z" fill="#FFF8DC"/>
  
  <!-- Segmento 10 (verde más claro) -->
  <path d="M16 16 L9.4 10.6 A8 8 0 0 1 12 8 L16 16 Z" fill="#F0FFF0"/>
  
  <!-- Segmento 11 (azul más claro) -->
  <path d="M16 16 L12 8 A8 8 0 0 1 16 6 L16 16 Z" fill="#F0F8FF"/>
  
  <!-- Segmento 12 (púrpura más claro) -->
  <path d="M16 16 L16 6 A8 8 0 0 1 20 8 L16 16 Z" fill="#F8F0FF"/>
  
  <!-- Segmento 13 (rosa suave) -->
  <path d="M16 16 L20 8 A8 8 0 0 1 21.2 9.8 L16 16 Z" fill="#FFC0CB"/>
  
  <!-- Segmento 14 (amarillo suave) -->
  <path d="M16 16 L21.2 9.8 A8 8 0 0 1 22.1 12.2 L16 16 Z" fill="#FFF8DC"/>
  
  <!-- Segmento 15 (verde suave) -->
  <path d="M16 16 L22.1 12.2 A8 8 0 0 1 22.6 15 L16 16 Z" fill="#F0FFF0"/>
  
  <!-- Segmento 16 (azul suave) -->
  <path d="M16 16 L22.6 15 A8 8 0 0 1 22.1 17.8 L16 16 Z" fill="#E0F6FF"/>
  
  <!-- Líneas divisorias negras -->
  <line x1="16" y1="8" x2="16" y2="24" stroke="black" stroke-width="1"/>
  <line x1="8" y1="16" x2="24" y2="16" stroke="black" stroke-width="1"/>
  <line x1="22.6" y1="10.6" x2="9.4" y2="21.4" stroke="black" stroke-width="1"/>
  <line x1="22.6" y1="21.4" x2="9.4" y2="10.6" stroke="black" stroke-width="1"/>
</svg> 